# xmcd
#
# Track frame offsets:
#	150
#	18557
#	33003
#	52030
#	68359
#	86625
#	96954
#	111816
#	127556
#	141657
#	153566
#	163674
#	179860
#	189540
#
# Disc length: 2719 seconds
#
# Revision: 1
# Processed by: cddbd v1.5PL3 Copyright (c) Steve Scherf et al.
# Submitted via: CDex 1.50Beta5
#
DISCID=bd0a9d0e
DTITLE=大江戸宅急便 - 元町観音
DYEAR=1900
DGENRE=Soundtrack
TTITLE0=消えた「おもいで」
TTITLE1=神社でワショーイ
TTITLE2=G線上の…
TTITLE3=Summer Night
TTITLE4=羽ばたけ、蒼き翼
TTITLE5=Fuxxn'!!
TTITLE6=俺は理奈萌え
TTITLE7=星の彼方へ
TTITLE8=愛した人よ、さようなら
TTITLE9=お嬢様はエレガント
TTITLE10=晴れのちVサイン
TTITLE11=野道 -Field Path-
TTITLE12=卯月町
TTITLE13=Refrain
EXTD=
EXTT0=
EXTT1=
EXTT2=
EXTT3=
EXTT4=
EXTT5=
EXTT6=
EXTT7=
EXTT8=
EXTT9=
EXTT10=
EXTT11=
EXTT12=
EXTT13=
PLAYORDER=
